# xmcd
#
# Track frame offsets: 
#        150
#        13699
#        24403
#        34731
#        48019
#        62538
#        81070
#        91307
#        101298
#        120262
#        136630
#        148645
#        201501
#
# Disc length: 2708 seconds
#
# Revision: 2
# Processed by: cddbd v1.5.2PL0 Copyright (c) Steve Scherf et al.
# Submitted via: ExactAudioCopy v0.99pb5
#
DISCID=980a920d
DTITLE=Fred Eaglesmith - Falling Stars and Broken Hearts
DYEAR=2002
DGENRE=Folk-Rock
TTITLE0=I Ain't Ever Givin' In
TTITLE1=Pretty Girl
TTITLE2=Indian Motorcycles
TTITLE3=Sugarcane
TTITLE4=Ordinary Guy
TTITLE5=Cumberland County
TTITLE6=Rev It Up
TTITLE7=Soft on My Shoulder
TTITLE8=Dancin' on the Bar
TTITLE9=I Wanna Buy Your Truck
TTITLE10=Cold War
TTITLE11=Your Sister Cried
TTITLE12=Data
EXTD=
EXTT0=
EXTT1=
EXTT2=
EXTT3=
EXTT4=
EXTT5=
EXTT6=
EXTT7=
EXTT8=
EXTT9=
EXTT10=
EXTT11=
EXTT12=
PLAYORDER=
